<svg width="48" height="48" viewBox="0 0 48 48" fill="none" xmlns="http://www.w3.org/2000/svg">
  <circle cx="24" cy="24" r="24" fill="url(#paint0_linear)"/>
  <path d="M34 20.3C34 25.4 29.7 29.7 24 29.7C18.3 29.7 14 25.4 14 20.3C14 15.2 18.3 11 24 11C29.7 11 34 15.2 34 20.3Z" fill="white" fill-opacity="0.2"/>
  <path d="M14.5 33.6C14.5 31.1 16.4 28 18.9 28H29.1C31.6 28 33.5 31.1 33.5 33.6V35.5C33.5 35.8 33.3 36.1 33 36.3C28.8 38.2 19.2 38.2 15 36.3C14.7 36.1 14.5 35.8 14.5 35.5V33.6Z" fill="white" fill-opacity="0.2"/>
  <path d="M30.2 17.2C30.2 21.5 27.6 25 24.4 25C21.2 25 18.6 21.5 18.6 17.2C18.6 12.9 21.2 9.5 24.4 9.5C27.6 9.5 30.2 12.9 30.2 17.2Z" fill="white" fill-opacity="0.15"/>
  <path d="M24 32C24 32 18.5 29.7 18.5 25.5C18.5 21.3 20.9 19 24 19C27.1 19 29.5 21.3 29.5 25.5C29.5 29.7 24 32 24 32Z" fill="white" fill-opacity="0.2"/>
  <path d="M24 27.5L22 25.5L24 24L26 25.5L24 27.5Z" fill="white" fill-opacity="0.5"/>
  <defs>
    <linearGradient id="paint0_linear" x1="0" y1="0" x2="48" y2="48" gradientUnits="userSpaceOnUse">
      <stop stop-color="#FF5A3D"/>
      <stop offset="1" stop-color="#F1B593"/>
    </linearGradient>
  </defs>
</svg>